<svg xmlns="http://www.w3.org/2000/svg" viewBox="-1 -1 2 2" width="1000" height="1000">
<defs>
    <linearGradient id="bodyGrad" x1="0" y1="-0.64" x2="0" y2="0.78" gradientUnits="userSpaceOnUse">
        <stop offset="0%" stop-color="rgb(255, 25, 102)" />
        <stop offset="100%" stop-color="rgb(255, 153, 25)" />
    </linearGradient>
    <mask id="eyeMask">
        <rect x="-2" y="-2" width="4" height="4" fill="white"/>
        <path d="M -0.04487179487179487,0.08974358974358973 A 0.04487179487179487,0.04487179487179487 0 1 0 0.04487179487179487,0.08974358974358973 A 0.04487179487179487,0.04487179487179487 0 1 0 -0.04487179487179487,0.08974358974358973 Z" fill="black"/>
    </mask>
</defs>

<!-- Transform: Flip Y because SVG Y is down, but SDF Y is up -->
<g transform="scale(1, -1)">
    <!-- Main Shape with Gradient and Eye Hole -->
    <path d="M -0.3733,0.7870 L -0.3721,0.7867 L -0.3700,0.7860 L -0.3667,0.7847 L -0.3638,0.7833 L -0.3633,0.7831 L -0.3600,0.7811 L -0.3584,0.7800 L -0.3567,0.7787 L -0.3543,0.7767 L -0.3533,0.7757 L -0.3510,0.7733 L -0.3500,0.7721 L -0.3484,0.7700 L -0.3467,0.7675 L -0.3443,0.7633 L -0.3433,0.7611 L -0.3429,0.7600 L -0.3417,0.7567 L -0.3408,0.7533 L -0.3402,0.7500 L -0.3400,0.7483 L -0.3398,0.7467 L -0.3394,0.7433 L -0.3390,0.7400 L -0.3386,0.7367 L -0.3382,0.7333 L -0.3379,0.7300 L -0.3375,0.7267 L -0.3371,0.7233 L -0.3367,0.7200 L -0.3367,0.7197 L -0.3363,0.7167 L -0.3359,0.7133 L -0.3355,0.7100 L -0.3351,0.7067 L -0.3348,0.7033 L -0.3344,0.7000 L -0.3340,0.6967 L -0.3336,0.6933 L -0.3333,0.6911 L -0.3332,0.6900 L -0.3328,0.6867 L -0.3324,0.6833 L -0.3320,0.6800 L -0.3317,0.6767 L -0.3313,0.6733 L -0.3309,0.6700 L -0.3305,0.6667 L -0.3301,0.6633 L -0.3300,0.6624 L -0.3297,0.6600 L -0.3293,0.6567 L -0.3289,0.6533 L -0.3286,0.6500 L -0.3282,0.6467 L -0.3278,0.6433 L -0.3274,0.6400 L -0.3270,0.6367 L -0.3267,0.6337 L -0.3262,0.6300 L -0.3258,0.6267 L -0.3255,0.6233 L -0.3251,0.6200 L -0.3247,0.6167 L -0.3243,0.6133 L -0.3239,0.6100 L -0.3235,0.6067 L -0.3233,0.6051 L -0.3231,0.6033 L -0.3227,0.6000 L -0.3224,0.5967 L -0.3220,0.5933 L -0.3216,0.5900 L -0.3212,0.5867 L -0.3208,0.5833 L -0.3204,0.5800 L -0.3200,0.5767 L -0.3200,0.5764 L -0.3196,0.5733 L -0.3193,0.5700 L -0.3189,0.5667 L -0.3185,0.5633 L -0.3181,0.5600 L -0.3177,0.5567 L -0.3173,0.5533 L -0.3169,0.5500 L -0.3167,0.5477 L -0.3165,0.5467 L -0.3162,0.5433 L -0.3158,0.5400 L -0.3154,0.5367 L -0.3150,0.5333 L -0.3146,0.5300 L -0.3142,0.5267 L -0.3138,0.5233 L -0.3134,0.5200 L -0.3133,0.5191 L -0.3131,0.5167 L -0.3127,0.5133 L -0.3123,0.5100 L -0.3119,0.5067 L -0.3115,0.5033 L -0.3111,0.5000 L -0.3107,0.4967 L -0.3103,0.4933 L -0.3100,0.4904 L -0.3096,0.4867 L -0.3092,0.4833 L -0.3088,0.4800 L -0.3084,0.4767 L -0.3080,0.4733 L -0.3076,0.4700 L -0.3072,0.4667 L -0.3069,0.4633 L -0.3067,0.4617 L -0.3065,0.4600 L -0.3061,0.4567 L -0.3057,0.4533 L -0.3053,0.4500 L -0.3049,0.4467 L -0.3045,0.4433 L -0.3041,0.4400 L -0.3038,0.4367 L -0.3034,0.4333 L -0.3033,0.4331 L -0.3030,0.4300 L -0.3026,0.4267 L -0.3022,0.4233 L -0.3018,0.4200 L -0.3014,0.4167 L -0.3010,0.4133 L -0.3007,0.4100 L -0.3003,0.4067 L -0.3000,0.4044 L -0.2999,0.4033 L -0.2995,0.4000 L -0.2991,0.3967 L -0.2987,0.3933 L -0.2983,0.3900 L -0.2979,0.3867 L -0.2976,0.3833 L -0.2972,0.3800 L -0.2968,0.3767 L -0.2967,0.3757 L -0.2964,0.3733 L -0.2960,0.3700 L -0.2956,0.3667 L -0.2952,0.3633 L -0.2948,0.3600 L -0.2945,0.3567 L -0.2941,0.3533 L -0.2937,0.3500 L -0.2933,0.3471 L -0.2929,0.3433 L -0.2925,0.3400 L -0.2921,0.3367 L -0.2917,0.3333 L -0.2913,0.3300 L -0.2910,0.3267 L -0.2906,0.3233 L -0.2902,0.3200 L -0.2900,0.3184 L -0.2898,0.3200 L -0.2894,0.3233 L -0.2889,0.3267 L -0.2885,0.3300 L -0.2880,0.3333 L -0.2875,0.3367 L -0.2870,0.3400 L -0.2867,0.3419 L -0.2865,0.3433 L -0.2860,0.3467 L -0.2856,0.3500 L -0.2851,0.3533 L -0.2847,0.3567 L -0.2842,0.3600 L -0.2838,0.3633 L -0.2833,0.3666 L -0.2833,0.3667 L -0.2829,0.3700 L -0.2824,0.3733 L -0.2820,0.3767 L -0.2815,0.3800 L -0.2811,0.3833 L -0.2806,0.3867 L -0.2802,0.3900 L -0.2800,0.3913 L -0.2797,0.3933 L -0.2793,0.3967 L -0.2788,0.4000 L -0.2784,0.4033 L -0.2779,0.4067 L -0.2775,0.4100 L -0.2770,0.4133 L -0.2767,0.4159 L -0.2766,0.4167 L -0.2761,0.4200 L -0.2757,0.4233 L -0.2752,0.4267 L -0.2748,0.4300 L -0.2743,0.4333 L -0.2739,0.4367 L -0.2734,0.4400 L -0.2733,0.4406 L -0.2730,0.4433 L -0.2725,0.4467 L -0.2721,0.4500 L -0.2716,0.4533 L -0.2712,0.4567 L -0.2707,0.4600 L -0.2703,0.4633 L -0.2700,0.4653 L -0.2698,0.4667 L -0.2694,0.4700 L -0.2689,0.4733 L -0.2685,0.4767 L -0.2680,0.4800 L -0.2676,0.4833 L -0.2671,0.4867 L -0.2667,0.4899 L -0.2667,0.4900 L -0.2662,0.4933 L -0.2658,0.4967 L -0.2653,0.5000 L -0.2649,0.5033 L -0.2644,0.5067 L -0.2640,0.5100 L -0.2635,0.5133 L -0.2633,0.5146 L -0.2631,0.5167 L -0.2626,0.5200 L -0.2622,0.5233 L -0.2617,0.5267 L -0.2613,0.5300 L -0.2608,0.5333 L -0.2604,0.5367 L -0.2600,0.5393 L -0.2599,0.5400 L -0.2595,0.5433 L -0.2590,0.5467 L -0.2586,0.5500 L -0.2581,0.5533 L -0.2576,0.5567 L -0.2572,0.5600 L -0.2567,0.5633 L -0.2567,0.5639 L -0.2563,0.5667 L -0.2558,0.5700 L -0.2554,0.5733 L -0.2549,0.5767 L -0.2545,0.5800 L -0.2540,0.5833 L -0.2536,0.5867 L -0.2533,0.5886 L -0.2531,0.5900 L -0.2527,0.5933 L -0.2522,0.5967 L -0.2518,0.6000 L -0.2513,0.6033 L -0.2509,0.6067 L -0.2504,0.6100 L -0.2500,0.6133 L -0.2500,0.6133 L -0.2495,0.6167 L -0.2491,0.6200 L -0.2486,0.6233 L -0.2482,0.6267 L -0.2477,0.6300 L -0.2473,0.6333 L -0.2468,0.6367 L -0.2467,0.6379 L -0.2464,0.6400 L -0.2459,0.6433 L -0.2455,0.6467 L -0.2450,0.6500 L -0.2446,0.6533 L -0.2441,0.6567 L -0.2437,0.6600 L -0.2433,0.6626 L -0.2432,0.6633 L -0.2428,0.6667 L -0.2423,0.6700 L -0.2419,0.6733 L -0.2414,0.6767 L -0.2410,0.6800 L -0.2405,0.6833 L -0.2401,0.6867 L -0.2400,0.6873 L -0.2396,0.6900 L -0.2392,0.6933 L -0.2387,0.6967 L -0.2383,0.7000 L -0.2378,0.7033 L -0.2374,0.7067 L -0.2369,0.7100 L -0.2367,0.7117 L -0.2364,0.7133 L -0.2357,0.7167 L -0.2346,0.7200 L -0.2333,0.7233 L -0.2333,0.7233 L -0.2317,0.7267 L -0.2300,0.7295 L -0.2297,0.7300 L -0.2272,0.7333 L -0.2267,0.7340 L -0.2242,0.7367 L -0.2233,0.7375 L -0.2205,0.7400 L -0.2200,0.7404 L -0.2167,0.7428 L -0.2158,0.7433 L -0.2133,0.7448 L -0.2100,0.7464 L -0.2092,0.7467 L -0.2067,0.7476 L -0.2033,0.7486 L -0.2000,0.7493 L -0.1967,0.7498 L -0.1933,0.7500 L -0.1900,0.7499 L -0.1867,0.7496 L -0.1833,0.7491 L -0.1800,0.7483 L -0.1767,0.7472 L -0.1754,0.7467 L -0.1733,0.7458 L -0.1700,0.7441 L -0.1688,0.7433 L -0.1667,0.7419 L -0.1641,0.7400 L -0.1633,0.7394 L -0.1604,0.7367 L -0.1600,0.7363 L -0.1574,0.7333 L -0.1567,0.7324 L -0.1550,0.7300 L -0.1533,0.7273 L -0.1513,0.7233 L -0.1500,0.7201 L -0.1489,0.7167 L -0.1482,0.7133 L -0.1477,0.7100 L -0.1475,0.7067 L -0.1475,0.7033 L -0.1477,0.7000 L -0.1482,0.6967 L -0.1486,0.6933 L -0.1491,0.6900 L -0.1495,0.6867 L -0.1500,0.6833 L -0.1504,0.6800 L -0.1509,0.6767 L -0.1513,0.6733 L -0.1518,0.6700 L -0.1522,0.6667 L -0.1527,0.6633 L -0.1531,0.6600 L -0.1533,0.6585 L -0.1536,0.6567 L -0.1540,0.6533 L -0.1545,0.6500 L -0.1549,0.6467 L -0.1554,0.6433 L -0.1558,0.6400 L -0.1563,0.6367 L -0.1567,0.6338 L -0.1572,0.6300 L -0.1576,0.6267 L -0.1581,0.6233 L -0.1585,0.6200 L -0.1590,0.6167 L -0.1594,0.6133 L -0.1599,0.6100 L -0.1603,0.6067 L -0.1608,0.6033 L -0.1612,0.6000 L -0.1617,0.5967 L -0.1621,0.5933 L -0.1626,0.5900 L -0.1630,0.5867 L -0.1633,0.5845 L -0.1635,0.5833 L -0.1639,0.5800 L -0.1644,0.5767 L -0.1648,0.5733 L -0.1653,0.5700 L -0.1657,0.5667 L -0.1662,0.5633 L -0.1666,0.5600 L -0.1671,0.5567 L -0.1675,0.5533 L -0.1680,0.5500 L -0.1684,0.5467 L -0.1689,0.5433 L -0.1693,0.5400 L -0.1698,0.5367 L -0.1700,0.5351 L -0.1702,0.5333 L -0.1707,0.5300 L -0.1711,0.5267 L -0.1716,0.5233 L -0.1720,0.5200 L -0.1725,0.5167 L -0.1729,0.5133 L -0.1733,0.5105 L -0.1738,0.5067 L -0.1743,0.5033 L -0.1747,0.5000 L -0.1752,0.4967 L -0.1756,0.4933 L -0.1761,0.4900 L -0.1765,0.4867 L -0.1770,0.4833 L -0.1775,0.4800 L -0.1779,0.4767 L -0.1784,0.4733 L -0.1788,0.4700 L -0.1793,0.4667 L -0.1797,0.4633 L -0.1800,0.4611 L -0.1802,0.4600 L -0.1806,0.4567 L -0.1811,0.4533 L -0.1815,0.4500 L -0.1820,0.4467 L -0.1824,0.4433 L -0.1829,0.4400 L -0.1833,0.4367 L -0.1838,0.4333 L -0.1842,0.4300 L -0.1847,0.4267 L -0.1851,0.4233 L -0.1856,0.4200 L -0.1860,0.4167 L -0.1865,0.4133 L -0.1867,0.4118 L -0.1869,0.4100 L -0.1874,0.4067 L -0.1878,0.4033 L -0.1883,0.4000 L -0.1887,0.3967 L -0.1892,0.3933 L -0.1896,0.3900 L -0.1900,0.3871 L -0.1905,0.3833 L -0.1910,0.3800 L -0.1914,0.3767 L -0.1919,0.3733 L -0.1920,0.3700 L -0.1907,0.3667 L -0.1900,0.3662 L -0.1898,0.3667 L -0.1884,0.3700 L -0.1871,0.3733 L -0.1867,0.3741 L -0.1856,0.3767 L -0.1843,0.3800 L -0.1833,0.3824 L -0.1830,0.3833 L -0.1816,0.3867 L -0.1803,0.3900 L -0.1800,0.3907 L -0.1790,0.3933 L -0.1776,0.3967 L -0.1767,0.3991 L -0.1763,0.4000 L -0.1750,0.4033 L -0.1736,0.4067 L -0.1733,0.4074 L -0.1723,0.4100 L -0.1710,0.4133 L -0.1700,0.4157 L -0.1696,0.4167 L -0.1683,0.4200 L -0.1670,0.4233 L -0.1667,0.4241 L -0.1656,0.4267 L -0.1643,0.4300 L -0.1633,0.4324 L -0.1630,0.4333 L -0.1616,0.4367 L -0.1603,0.4400 L -0.1600,0.4407 L -0.1590,0.4433 L -0.1576,0.4467 L -0.1567,0.4491 L -0.1563,0.4500 L -0.1550,0.4533 L -0.1536,0.4567 L -0.1533,0.4574 L -0.1523,0.4600 L -0.1510,0.4633 L -0.1500,0.4657 L -0.1496,0.4667 L -0.1483,0.4700 L -0.1470,0.4733 L -0.1467,0.4741 L -0.1456,0.4767 L -0.1443,0.4800 L -0.1433,0.4824 L -0.1430,0.4833 L -0.1416,0.4867 L -0.1403,0.4900 L -0.1400,0.4907 L -0.1390,0.4933 L -0.1376,0.4967 L -0.1367,0.4991 L -0.1363,0.5000 L -0.1350,0.5033 L -0.1336,0.5067 L -0.1333,0.5074 L -0.1323,0.5100 L -0.1310,0.5133 L -0.1300,0.5157 L -0.1296,0.5167 L -0.1283,0.5200 L -0.1270,0.5233 L -0.1267,0.5241 L -0.1256,0.5267 L -0.1243,0.5300 L -0.1233,0.5324 L -0.1230,0.5333 L -0.1216,0.5367 L -0.1203,0.5400 L -0.1200,0.5407 L -0.1190,0.5433 L -0.1176,0.5467 L -0.1167,0.5491 L -0.1163,0.5500 L -0.1150,0.5533 L -0.1136,0.5567 L -0.1133,0.5574 L -0.1123,0.5600 L -0.1110,0.5633 L -0.1100,0.5657 L -0.1096,0.5667 L -0.1083,0.5700 L -0.1070,0.5733 L -0.1067,0.5741 L -0.1056,0.5767 L -0.1043,0.5800 L -0.1033,0.5824 L -0.1030,0.5833 L -0.1016,0.5867 L -0.1003,0.5900 L -0.1000,0.5907 L -0.0989,0.5933 L -0.0971,0.5967 L -0.0967,0.5974 L -0.0949,0.6000 L -0.0933,0.6019 L -0.0920,0.6033 L -0.0900,0.6053 L -0.0885,0.6067 L -0.0867,0.6081 L -0.0837,0.6100 L -0.0833,0.6102 L -0.0800,0.6119 L -0.0767,0.6133 L -0.0765,0.6133 L -0.0733,0.6143 L -0.0700,0.6149 L -0.0667,0.6153 L -0.0633,0.6154 L -0.0600,0.6152 L -0.0567,0.6147 L -0.0533,0.6138 L -0.0518,0.6133 L -0.0500,0.6127 L -0.0467,0.6112 L -0.0445,0.6100 L -0.0433,0.6093 L -0.0400,0.6069 L -0.0367,0.6039 L -0.0333,0.6000 L -0.0333,0.6000 L -0.0311,0.5967 L -0.0300,0.5946 L -0.0293,0.5933 L -0.0279,0.5900 L -0.0269,0.5867 L -0.0267,0.5856 L -0.0262,0.5833 L -0.0258,0.5800 L -0.0256,0.5767 L -0.0258,0.5733 L -0.0263,0.5700 L -0.0267,0.5683 L -0.0270,0.5667 L -0.0281,0.5633 L -0.0294,0.5600 L -0.0300,0.5586 L -0.0308,0.5567 L -0.0321,0.5533 L -0.0333,0.5503 L -0.0348,0.5467 L -0.0361,0.5433 L -0.0367,0.5420 L -0.0374,0.5400 L -0.0388,0.5367 L -0.0400,0.5336 L -0.0414,0.5300 L -0.0428,0.5267 L -0.0433,0.5253 L -0.0441,0.5233 L -0.0454,0.5200 L -0.0467,0.5170 L -0.0481,0.5133 L -0.0494,0.5100 L -0.0500,0.5086 L -0.0508,0.5067 L -0.0521,0.5033 L -0.0533,0.5003 L -0.0548,0.4967 L -0.0561,0.4933 L -0.0567,0.4920 L -0.0574,0.4900 L -0.0588,0.4867 L -0.0600,0.4836 L -0.0614,0.4800 L -0.0628,0.4767 L -0.0633,0.4753 L -0.0641,0.4733 L -0.0654,0.4700 L -0.0667,0.4670 L -0.0681,0.4633 L -0.0694,0.4600 L -0.0700,0.4586 L -0.0708,0.4567 L -0.0721,0.4533 L -0.0733,0.4503 L -0.0748,0.4467 L -0.0761,0.4433 L -0.0767,0.4420 L -0.0774,0.4400 L -0.0788,0.4367 L -0.0800,0.4336 L -0.0814,0.4300 L -0.0828,0.4267 L -0.0833,0.4253 L -0.0841,0.4233 L -0.0854,0.4200 L -0.0867,0.4170 L -0.0881,0.4133 L -0.0894,0.4100 L -0.0900,0.4086 L -0.0908,0.4067 L -0.0921,0.4033 L -0.0933,0.4003 L -0.0948,0.3967 L -0.0961,0.3933 L -0.0967,0.3916 L -0.0973,0.3900 L -0.0983,0.3867 L -0.0992,0.3833 L -0.1000,0.3800 L -0.1005,0.3767 L -0.1008,0.3733 L -0.1009,0.3700 L -0.1006,0.3667 L -0.1000,0.3639 L -0.0985,0.3600 L -0.0967,0.3570 L -0.0933,0.3537 L -0.0900,0.3516 L -0.0867,0.3500 L -0.0867,0.3500 L -0.0833,0.3489 L -0.0800,0.3481 L -0.0767,0.3474 L -0.0733,0.3469 L -0.0707,0.3467 L -0.0700,0.3466 L -0.0667,0.3464 L -0.0633,0.3462 L -0.0600,0.3461 L -0.0567,0.3461 L -0.0533,0.3459 L -0.0500,0.3458 L -0.0467,0.3456 L -0.0433,0.3454 L -0.0400,0.3451 L -0.0367,0.3448 L -0.0333,0.3445 L -0.0300,0.3441 L -0.0267,0.3437 L -0.0243,0.3433 L -0.0233,0.3432 L -0.0200,0.3427 L -0.0167,0.3421 L -0.0133,0.3415 L -0.0100,0.3409 L -0.0067,0.3402 L -0.0055,0.3400 L -0.0033,0.3395 L 0.0000,0.3388 L 0.0033,0.3380 L 0.0067,0.3371 L 0.0084,0.3367 L 0.0100,0.3362 L 0.0133,0.3353 L 0.0167,0.3343 L 0.0200,0.3333 L 0.0200,0.3333 L 0.0233,0.3323 L 0.0267,0.3311 L 0.0300,0.3300 L 0.0300,0.3300 L 0.0333,0.3288 L 0.0367,0.3275 L 0.0389,0.3267 L 0.0400,0.3262 L 0.0433,0.3249 L 0.0467,0.3235 L 0.0500,0.3220 L 0.0533,0.3205 L 0.0545,0.3200 L 0.0567,0.3190 L 0.0600,0.3174 L 0.0614,0.3167 L 0.0633,0.3157 L 0.0667,0.3140 L 0.0679,0.3133 L 0.0700,0.3122 L 0.0733,0.3104 L 0.0767,0.3085 L 0.0798,0.3067 L 0.0800,0.3066 L 0.0833,0.3045 L 0.0853,0.3033 L 0.0867,0.3025 L 0.0900,0.3003 L 0.0933,0.2981 L 0.0955,0.2967 L 0.0967,0.2958 L 0.1000,0.2935 L 0.1033,0.2911 L 0.1048,0.2900 L 0.1067,0.2886 L 0.1092,0.2867 L 0.1100,0.2860 L 0.1133,0.2833 L 0.1167,0.2806 L 0.1200,0.2778 L 0.1213,0.2767 L 0.1233,0.2749 L 0.1250,0.2733 L 0.1267,0.2718 L 0.1287,0.2700 L 0.1300,0.2687 L 0.1322,0.2667 L 0.1333,0.2655 L 0.1355,0.2633 L 0.1367,0.2622 L 0.1388,0.2600 L 0.1400,0.2588 L 0.1420,0.2567 L 0.1433,0.2552 L 0.1450,0.2533 L 0.1467,0.2515 L 0.1480,0.2500 L 0.1500,0.2477 L 0.1509,0.2467 L 0.1533,0.2438 L 0.1564,0.2400 L 0.1567,0.2396 L 0.1590,0.2367 L 0.1600,0.2354 L 0.1615,0.2333 L 0.1633,0.2309 L 0.1640,0.2300 L 0.1664,0.2267 L 0.1667,0.2263 L 0.1687,0.2233 L 0.1700,0.2214 L 0.1709,0.2200 L 0.1731,0.2167 L 0.1733,0.2163 L 0.1752,0.2133 L 0.1767,0.2110 L 0.1773,0.2100 L 0.1793,0.2067 L 0.1800,0.2054 L 0.1812,0.2033 L 0.1831,0.2000 L 0.1833,0.1995 L 0.1849,0.1967 L 0.1866,0.1933 L 0.1867,0.1932 L 0.1883,0.1900 L 0.1899,0.1867 L 0.1900,0.1865 L 0.1915,0.1833 L 0.1930,0.1800 L 0.1933,0.1793 L 0.1945,0.1767 L 0.1959,0.1733 L 0.1967,0.1716 L 0.1973,0.1700 L 0.1986,0.1667 L 0.1999,0.1633 L 0.2000,0.1631 L 0.2011,0.1600 L 0.2023,0.1567 L 0.2033,0.1537 L 0.2046,0.1500 L 0.2056,0.1467 L 0.2066,0.1433 L 0.2067,0.1431 L 0.2075,0.1400 L 0.2085,0.1367 L 0.2093,0.1333 L 0.2100,0.1306 L 0.2109,0.1267 L 0.2117,0.1233 L 0.2124,0.1200 L 0.2130,0.1167 L 0.2133,0.1149 L 0.2136,0.1133 L 0.2142,0.1100 L 0.2147,0.1067 L 0.2152,0.1033 L 0.2157,0.1000 L 0.2161,0.0967 L 0.2164,0.0933 L 0.2167,0.0909 L 0.2170,0.0867 L 0.2173,0.0833 L 0.2178,0.0800 L 0.2184,0.0767 L 0.2195,0.0733 L 0.2200,0.0721 L 0.2211,0.0700 L 0.2233,0.0671 L 0.2267,0.0645 L 0.2291,0.0633 L 0.2300,0.0630 L 0.2333,0.0622 L 0.2367,0.0619 L 0.2400,0.0619 L 0.2433,0.0622 L 0.2467,0.0627 L 0.2500,0.0631 L 0.2516,0.0633 L 0.2533,0.0636 L 0.2567,0.0640 L 0.2600,0.0645 L 0.2633,0.0649 L 0.2667,0.0654 L 0.2700,0.0658 L 0.2733,0.0663 L 0.2760,0.0667 L 0.2767,0.0668 L 0.2800,0.0672 L 0.2833,0.0677 L 0.2867,0.0681 L 0.2900,0.0686 L 0.2933,0.0690 L 0.2967,0.0695 L 0.3000,0.0699 L 0.3005,0.0700 L 0.3033,0.0704 L 0.3067,0.0708 L 0.3100,0.0713 L 0.3133,0.0718 L 0.3167,0.0722 L 0.3200,0.0727 L 0.3233,0.0731 L 0.3249,0.0733 L 0.3267,0.0736 L 0.3300,0.0740 L 0.3333,0.0745 L 0.3367,0.0749 L 0.3400,0.0754 L 0.3433,0.0758 L 0.3467,0.0763 L 0.3493,0.0767 L 0.3500,0.0768 L 0.3533,0.0772 L 0.3567,0.0777 L 0.3600,0.0781 L 0.3633,0.0786 L 0.3667,0.0790 L 0.3700,0.0795 L 0.3733,0.0799 L 0.3738,0.0800 L 0.3767,0.0804 L 0.3800,0.0810 L 0.3833,0.0816 L 0.3867,0.0823 L 0.3900,0.0831 L 0.3911,0.0833 L 0.3933,0.0839 L 0.3967,0.0846 L 0.4000,0.0854 L 0.4033,0.0861 L 0.4060,0.0867 L 0.4067,0.0868 L 0.4100,0.0874 L 0.4133,0.0880 L 0.4167,0.0885 L 0.4200,0.0889 L 0.4233,0.0892 L 0.4267,0.0895 L 0.4300,0.0897 L 0.4333,0.0899 L 0.4357,0.0900 L 0.4367,0.0900 L 0.4400,0.0902 L 0.4433,0.0903 L 0.4467,0.0904 L 0.4500,0.0902 L 0.4525,0.0900 L 0.4533,0.0899 L 0.4567,0.0894 L 0.4600,0.0888 L 0.4633,0.0879 L 0.4667,0.0868 L 0.4700,0.0854 L 0.4733,0.0839 L 0.4743,0.0833 L 0.4767,0.0820 L 0.4799,0.0800 L 0.4800,0.0799 L 0.4833,0.0775 L 0.4845,0.0767 L 0.4867,0.0749 L 0.4885,0.0733 L 0.4900,0.0720 L 0.4922,0.0700 L 0.4933,0.0689 L 0.4957,0.0667 L 0.4967,0.0658 L 0.4992,0.0633 L 0.5000,0.0626 L 0.5028,0.0600 L 0.5033,0.0596 L 0.5067,0.0568 L 0.5100,0.0543 L 0.5114,0.0533 L 0.5133,0.0521 L 0.5167,0.0503 L 0.5200,0.0488 L 0.5233,0.0475 L 0.5258,0.0467 L 0.5267,0.0464 L 0.5300,0.0453 L 0.5333,0.0443 L 0.5364,0.0433 L 0.5367,0.0433 L 0.5400,0.0422 L 0.5433,0.0412 L 0.5467,0.0401 L 0.5500,0.0391 L 0.5533,0.0381 L 0.5567,0.0370 L 0.5578,0.0367 L 0.5600,0.0360 L 0.5633,0.0349 L 0.5667,0.0339 L 0.5684,0.0333 L 0.5700,0.0328 L 0.5733,0.0318 L 0.5767,0.0308 L 0.5791,0.0300 L 0.5800,0.0297 L 0.5833,0.0287 L 0.5867,0.0276 L 0.5898,0.0267 L 0.5900,0.0266 L 0.5933,0.0256 L 0.5967,0.0245 L 0.6000,0.0235 L 0.6033,0.0224 L 0.6067,0.0214 L 0.6100,0.0203 L 0.6111,0.0200 L 0.6133,0.0193 L 0.6167,0.0183 L 0.6200,0.0172 L 0.6218,0.0167 L 0.6233,0.0162 L 0.6267,0.0151 L 0.6300,0.0141 L 0.6324,0.0133 L 0.6333,0.0131 L 0.6367,0.0120 L 0.6400,0.0110 L 0.6431,0.0100 L 0.6433,0.0099 L 0.6467,0.0089 L 0.6500,0.0078 L 0.6533,0.0068 L 0.6567,0.0058 L 0.6600,0.0047 L 0.6633,0.0037 L 0.6644,0.0033 L 0.6667,0.0026 L 0.6700,0.0016 L 0.6733,0.0006 L 0.6751,0.0000 L 0.6767,-0.0005 L 0.6800,-0.0015 L 0.6833,-0.0026 L 0.6858,-0.0033 L 0.6867,-0.0036 L 0.6900,-0.0047 L 0.6933,-0.0057 L 0.6964,-0.0067 L 0.6967,-0.0067 L 0.7000,-0.0078 L 0.7033,-0.0088 L 0.7067,-0.0099 L 0.7100,-0.0109 L 0.7133,-0.0119 L 0.7167,-0.0130 L 0.7178,-0.0133 L 0.7200,-0.0140 L 0.7233,-0.0151 L 0.7267,-0.0161 L 0.7284,-0.0167 L 0.7300,-0.0172 L 0.7333,-0.0182 L 0.7367,-0.0192 L 0.7391,-0.0200 L 0.7400,-0.0203 L 0.7433,-0.0213 L 0.7467,-0.0224 L 0.7498,-0.0233 L 0.7500,-0.0234 L 0.7533,-0.0244 L 0.7567,-0.0255 L 0.7600,-0.0265 L 0.7633,-0.0276 L 0.7667,-0.0286 L 0.7700,-0.0297 L 0.7711,-0.0300 L 0.7733,-0.0307 L 0.7767,-0.0317 L 0.7800,-0.0328 L 0.7818,-0.0333 L 0.7833,-0.0338 L 0.7867,-0.0349 L 0.7900,-0.0359 L 0.7924,-0.0367 L 0.7933,-0.0369 L 0.7967,-0.0380 L 0.8000,-0.0390 L 0.8031,-0.0400 L 0.8033,-0.0401 L 0.8067,-0.0411 L 0.8100,-0.0422 L 0.8133,-0.0432 L 0.8167,-0.0442 L 0.8200,-0.0453 L 0.8233,-0.0463 L 0.8244,-0.0467 L 0.8267,-0.0474 L 0.8300,-0.0484 L 0.8333,-0.0494 L 0.8351,-0.0500 L 0.8367,-0.0505 L 0.8400,-0.0515 L 0.8433,-0.0526 L 0.8457,-0.0533 L 0.8467,-0.0537 L 0.8500,-0.0551 L 0.8529,-0.0567 L 0.8533,-0.0569 L 0.8567,-0.0592 L 0.8577,-0.0600 L 0.8600,-0.0621 L 0.8613,-0.0633 L 0.8633,-0.0657 L 0.8641,-0.0667 L 0.8663,-0.0700 L 0.8667,-0.0706 L 0.8681,-0.0733 L 0.8695,-0.0767 L 0.8700,-0.0782 L 0.8705,-0.0800 L 0.8713,-0.0833 L 0.8717,-0.0867 L 0.8718,-0.0900 L 0.8716,-0.0933 L 0.8712,-0.0967 L 0.8704,-0.1000 L 0.8700,-0.1013 L 0.8693,-0.1033 L 0.8679,-0.1067 L 0.8667,-0.1089 L 0.8660,-0.1100 L 0.8637,-0.1133 L 0.8608,-0.1167 L 0.8600,-0.1174 L 0.8571,-0.1200 L 0.8533,-0.1226 L 0.8520,-0.1233 L 0.8500,-0.1244 L 0.8467,-0.1258 L 0.8440,-0.1267 L 0.8400,-0.1276 L 0.8367,-0.1281 L 0.8333,-0.1282 L 0.8300,-0.1281 L 0.8267,-0.1276 L 0.8233,-0.1269 L 0.8226,-0.1267 L 0.8200,-0.1259 L 0.8167,-0.1248 L 0.8133,-0.1238 L 0.8119,-0.1233 L 0.8100,-0.1227 L 0.8067,-0.1217 L 0.8033,-0.1207 L 0.8012,-0.1200 L 0.8000,-0.1196 L 0.7967,-0.1186 L 0.7933,-0.1175 L 0.7905,-0.1167 L 0.7867,-0.1155 L 0.7833,-0.1144 L 0.7800,-0.1134 L 0.7799,-0.1133 L 0.7767,-0.1123 L 0.7733,-0.1113 L 0.7700,-0.1102 L 0.7692,-0.1100 L 0.7667,-0.1092 L 0.7633,-0.1082 L 0.7600,-0.1071 L 0.7585,-0.1067 L 0.7567,-0.1061 L 0.7533,-0.1050 L 0.7500,-0.1040 L 0.7479,-0.1033 L 0.7467,-0.1030 L 0.7433,-0.1019 L 0.7400,-0.1009 L 0.7372,-0.1000 L 0.7333,-0.0988 L 0.7300,-0.0977 L 0.7267,-0.0967 L 0.7265,-0.0967 L 0.7233,-0.0957 L 0.7200,-0.0946 L 0.7167,-0.0936 L 0.7159,-0.0933 L 0.7133,-0.0925 L 0.7100,-0.0915 L 0.7067,-0.0905 L 0.7052,-0.0900 L 0.7033,-0.0894 L 0.7000,-0.0884 L 0.6967,-0.0873 L 0.6945,-0.0867 L 0.6933,-0.0863 L 0.6900,-0.0852 L 0.6867,-0.0842 L 0.6839,-0.0833 L 0.6800,-0.0821 L 0.6767,-0.0811 L 0.6733,-0.0800 L 0.6732,-0.0800 L 0.6700,-0.0790 L 0.6667,-0.0780 L 0.6633,-0.0769 L 0.6625,-0.0767 L 0.6600,-0.0759 L 0.6567,-0.0748 L 0.6533,-0.0738 L 0.6519,-0.0733 L 0.6500,-0.0727 L 0.6467,-0.0717 L 0.6433,-0.0707 L 0.6412,-0.0700 L 0.6400,-0.0696 L 0.6367,-0.0686 L 0.6333,-0.0675 L 0.6305,-0.0667 L 0.6267,-0.0655 L 0.6233,-0.0644 L 0.6200,-0.0634 L 0.6199,-0.0633 L 0.6167,-0.0623 L 0.6133,-0.0613 L 0.6100,-0.0602 L 0.6092,-0.0600 L 0.6067,-0.0592 L 0.6033,-0.0582 L 0.6000,-0.0571 L 0.5985,-0.0567 L 0.5967,-0.0561 L 0.5933,-0.0550 L 0.5900,-0.0540 L 0.5879,-0.0533 L 0.5867,-0.0530 L 0.5833,-0.0519 L 0.5800,-0.0509 L 0.5772,-0.0500 L 0.5733,-0.0488 L 0.5700,-0.0477 L 0.5667,-0.0467 L 0.5665,-0.0467 L 0.5633,-0.0457 L 0.5600,-0.0446 L 0.5567,-0.0436 L 0.5559,-0.0433 L 0.5533,-0.0425 L 0.5500,-0.0415 L 0.5467,-0.0405 L 0.5452,-0.0400 L 0.5433,-0.0394 L 0.5400,-0.0384 L 0.5367,-0.0373 L 0.5345,-0.0367 L 0.5333,-0.0363 L 0.5300,-0.0352 L 0.5267,-0.0342 L 0.5239,-0.0333 L 0.5200,-0.0321 L 0.5167,-0.0311 L 0.5133,-0.0300 L 0.5132,-0.0300 L 0.5100,-0.0290 L 0.5067,-0.0280 L 0.5033,-0.0269 L 0.5025,-0.0267 L 0.5000,-0.0259 L 0.4967,-0.0248 L 0.4933,-0.0238 L 0.4917,-0.0233 L 0.4900,-0.0228 L 0.4867,-0.0221 L 0.4833,-0.0214 L 0.4800,-0.0209 L 0.4767,-0.0204 L 0.4733,-0.0201 L 0.4721,-0.0200 L 0.4700,-0.0198 L 0.4667,-0.0196 L 0.4633,-0.0194 L 0.4600,-0.0191 L 0.4567,-0.0189 L 0.4533,-0.0186 L 0.4500,-0.0184 L 0.4467,-0.0182 L 0.4433,-0.0180 L 0.4400,-0.0179 L 0.4367,-0.0179 L 0.4333,-0.0179 L 0.4300,-0.0179 L 0.4267,-0.0180 L 0.4233,-0.0181 L 0.4200,-0.0182 L 0.4167,-0.0184 L 0.4133,-0.0186 L 0.4100,-0.0189 L 0.4067,-0.0192 L 0.4033,-0.0196 L 0.4000,-0.0200 L 0.3967,-0.0204 L 0.3933,-0.0208 L 0.3900,-0.0213 L 0.3867,-0.0218 L 0.3833,-0.0222 L 0.3800,-0.0227 L 0.3767,-0.0231 L 0.3751,-0.0233 L 0.3733,-0.0236 L 0.3700,-0.0240 L 0.3667,-0.0245 L 0.3633,-0.0249 L 0.3600,-0.0254 L 0.3567,-0.0258 L 0.3533,-0.0263 L 0.3507,-0.0267 L 0.3467,-0.0272 L 0.3433,-0.0277 L 0.3400,-0.0281 L 0.3367,-0.0286 L 0.3333,-0.0290 L 0.3300,-0.0295 L 0.3267,-0.0299 L 0.3233,-0.0304 L 0.3200,-0.0308 L 0.3167,-0.0313 L 0.3133,-0.0318 L 0.3100,-0.0322 L 0.3067,-0.0327 L 0.3033,-0.0331 L 0.3018,-0.0333 L 0.3000,-0.0336 L 0.2967,-0.0340 L 0.2933,-0.0345 L 0.2900,-0.0349 L 0.2867,-0.0354 L 0.2833,-0.0358 L 0.2800,-0.0363 L 0.2773,-0.0367 L 0.2733,-0.0372 L 0.2700,-0.0377 L 0.2667,-0.0381 L 0.2633,-0.0386 L 0.2600,-0.0390 L 0.2567,-0.0395 L 0.2533,-0.0399 L 0.2500,-0.0404 L 0.2467,-0.0408 L 0.2433,-0.0413 L 0.2400,-0.0418 L 0.2367,-0.0422 L 0.2333,-0.0427 L 0.2300,-0.0431 L 0.2285,-0.0433 L 0.2267,-0.0436 L 0.2233,-0.0443 L 0.2200,-0.0452 L 0.2167,-0.0464 L 0.2133,-0.0479 L 0.2100,-0.0498 L 0.2067,-0.0522 L 0.2054,-0.0533 L 0.2033,-0.0553 L 0.2021,-0.0567 L 0.2000,-0.0593 L 0.1975,-0.0633 L 0.1967,-0.0649 L 0.1958,-0.0667 L 0.1945,-0.0700 L 0.1934,-0.0733 L 0.1925,-0.0767 L 0.1916,-0.0800 L 0.1907,-0.0833 L 0.1900,-0.0859 L 0.1889,-0.0900 L 0.1881,-0.0933 L 0.1872,-0.0967 L 0.1867,-0.0988 L 0.1864,-0.1000 L 0.1855,-0.1033 L 0.1847,-0.1067 L 0.1840,-0.1100 L 0.1833,-0.1128 L 0.1825,-0.1167 L 0.1818,-0.1200 L 0.1811,-0.1233 L 0.1804,-0.1267 L 0.1800,-0.1291 L 0.1792,-0.1333 L 0.1787,-0.1367 L 0.1782,-0.1400 L 0.1777,-0.1433 L 0.1773,-0.1467 L 0.1769,-0.1500 L 0.1767,-0.1521 L 0.1765,-0.1533 L 0.1762,-0.1567 L 0.1760,-0.1600 L 0.1758,-0.1633 L 0.1756,-0.1667 L 0.1755,-0.1700 L 0.1754,-0.1733 L 0.1754,-0.1767 L 0.1754,-0.1800 L 0.1755,-0.1833 L 0.1756,-0.1867 L 0.1758,-0.1900 L 0.1760,-0.1933 L 0.1763,-0.1967 L 0.1767,-0.1999 L 0.1771,-0.2033 L 0.1775,-0.2067 L 0.1780,-0.2100 L 0.1786,-0.2133 L 0.1792,-0.2167 L 0.1798,-0.2200 L 0.1800,-0.2207 L 0.1806,-0.2233 L 0.1813,-0.2267 L 0.1821,-0.2300 L 0.1830,-0.2333 L 0.1833,-0.2346 L 0.1839,-0.2367 L 0.1849,-0.2400 L 0.1859,-0.2433 L 0.1867,-0.2457 L 0.1881,-0.2500 L 0.1893,-0.2533 L 0.1900,-0.2554 L 0.1905,-0.2567 L 0.1917,-0.2600 L 0.1930,-0.2633 L 0.1933,-0.2643 L 0.1942,-0.2667 L 0.1955,-0.2700 L 0.1967,-0.2732 L 0.1980,-0.2767 L 0.1992,-0.2800 L 0.2000,-0.2821 L 0.2005,-0.2833 L 0.2017,-0.2867 L 0.2030,-0.2900 L 0.2033,-0.2910 L 0.2042,-0.2933 L 0.2055,-0.2967 L 0.2067,-0.2999 L 0.2080,-0.3033 L 0.2092,-0.3067 L 0.2100,-0.3088 L 0.2105,-0.3100 L 0.2117,-0.3133 L 0.2130,-0.3167 L 0.2133,-0.3176 L 0.2142,-0.3200 L 0.2155,-0.3233 L 0.2167,-0.3265 L 0.2180,-0.3300 L 0.2192,-0.3333 L 0.2200,-0.3354 L 0.2205,-0.3367 L 0.2217,-0.3400 L 0.2230,-0.3433 L 0.2233,-0.3443 L 0.2242,-0.3467 L 0.2255,-0.3500 L 0.2267,-0.3532 L 0.2280,-0.3567 L 0.2292,-0.3600 L 0.2300,-0.3621 L 0.2305,-0.3633 L 0.2317,-0.3667 L 0.2330,-0.3700 L 0.2333,-0.3710 L 0.2342,-0.3733 L 0.2355,-0.3767 L 0.2367,-0.3799 L 0.2380,-0.3833 L 0.2392,-0.3867 L 0.2400,-0.3888 L 0.2405,-0.3900 L 0.2417,-0.3933 L 0.2430,-0.3967 L 0.2433,-0.3976 L 0.2442,-0.4000 L 0.2455,-0.4033 L 0.2467,-0.4065 L 0.2480,-0.4100 L 0.2492,-0.4133 L 0.2500,-0.4154 L 0.2505,-0.4167 L 0.2517,-0.4200 L 0.2530,-0.4233 L 0.2533,-0.4243 L 0.2542,-0.4267 L 0.2555,-0.4300 L 0.2567,-0.4332 L 0.2580,-0.4367 L 0.2592,-0.4400 L 0.2600,-0.4421 L 0.2605,-0.4433 L 0.2617,-0.4467 L 0.2630,-0.4500 L 0.2633,-0.4510 L 0.2642,-0.4533 L 0.2655,-0.4567 L 0.2667,-0.4599 L 0.2680,-0.4633 L 0.2692,-0.4667 L 0.2700,-0.4688 L 0.2705,-0.4700 L 0.2717,-0.4733 L 0.2730,-0.4767 L 0.2733,-0.4776 L 0.2742,-0.4800 L 0.2755,-0.4833 L 0.2767,-0.4865 L 0.2780,-0.4900 L 0.2792,-0.4933 L 0.2800,-0.4954 L 0.2805,-0.4967 L 0.2817,-0.5000 L 0.2828,-0.5033 L 0.2833,-0.5049 L 0.2839,-0.5067 L 0.2850,-0.5100 L 0.2859,-0.5133 L 0.2867,-0.5159 L 0.2877,-0.5200 L 0.2886,-0.5233 L 0.2893,-0.5267 L 0.2900,-0.5298 L 0.2907,-0.5333 L 0.2913,-0.5367 L 0.2919,-0.5400 L 0.2924,-0.5433 L 0.2929,-0.5467 L 0.2933,-0.5500 L 0.2933,-0.5503 L 0.2937,-0.5533 L 0.2940,-0.5567 L 0.2943,-0.5600 L 0.2945,-0.5633 L 0.2946,-0.5667 L 0.2948,-0.5700 L 0.2948,-0.5733 L 0.2937,-0.5767 L 0.2900,-0.5769 L 0.2867,-0.5769 L 0.2833,-0.5769 L 0.2800,-0.5769 L 0.2767,-0.5769 L 0.2733,-0.5769 L 0.2700,-0.5769 L 0.2667,-0.5769 L 0.2633,-0.5769 L 0.2600,-0.5769 L 0.2567,-0.5769 L 0.2533,-0.5769 L 0.2500,-0.5769 L 0.2467,-0.5769 L 0.2433,-0.5769 L 0.2400,-0.5769 L 0.2367,-0.5769 L 0.2333,-0.5769 L 0.2300,-0.5769 L 0.2267,-0.5769 L 0.2233,-0.5769 L 0.2200,-0.5769 L 0.2167,-0.5769 L 0.2133,-0.5769 L 0.2100,-0.5769 L 0.2067,-0.5769 L 0.2033,-0.5769 L 0.2000,-0.5769 L 0.1967,-0.5769 L 0.1933,-0.5769 L 0.1900,-0.5769 L 0.1867,-0.5769 L 0.1833,-0.5769 L 0.1800,-0.5769 L 0.1767,-0.5769 L 0.1733,-0.5769 L 0.1700,-0.5769 L 0.1667,-0.5769 L 0.1633,-0.5769 L 0.1600,-0.5769 L 0.1567,-0.5769 L 0.1533,-0.5769 L 0.1500,-0.5769 L 0.1467,-0.5769 L 0.1433,-0.5769 L 0.1400,-0.5769 L 0.1367,-0.5769 L 0.1333,-0.5769 L 0.1300,-0.5769 L 0.1267,-0.5769 L 0.1233,-0.5769 L 0.1200,-0.5769 L 0.1167,-0.5769 L 0.1133,-0.5769 L 0.1100,-0.5769 L 0.1067,-0.5769 L 0.1033,-0.5769 L 0.1000,-0.5769 L 0.0967,-0.5769 L 0.0933,-0.5769 L 0.0900,-0.5769 L 0.0867,-0.5769 L 0.0833,-0.5769 L 0.0800,-0.5769 L 0.0767,-0.5769 L 0.0733,-0.5769 L 0.0700,-0.5769 L 0.0667,-0.5769 L 0.0633,-0.5769 L 0.0600,-0.5769 L 0.0567,-0.5769 L 0.0533,-0.5769 L 0.0500,-0.5769 L 0.0467,-0.5769 L 0.0433,-0.5769 L 0.0400,-0.5769 L 0.0367,-0.5769 L 0.0333,-0.5769 L 0.0300,-0.5769 L 0.0267,-0.5769 L 0.0233,-0.5769 L 0.0200,-0.5769 L 0.0167,-0.5769 L 0.0133,-0.5769 L 0.0100,-0.5769 L 0.0067,-0.5769 L 0.0033,-0.5769 L 0.0000,-0.5769 L -0.0033,-0.5769 L -0.0067,-0.5769 L -0.0100,-0.5769 L -0.0133,-0.5769 L -0.0167,-0.5769 L -0.0200,-0.5769 L -0.0233,-0.5769 L -0.0267,-0.5769 L -0.0300,-0.5769 L -0.0333,-0.5769 L -0.0367,-0.5769 L -0.0400,-0.5769 L -0.0433,-0.5769 L -0.0467,-0.5769 L -0.0500,-0.5769 L -0.0533,-0.5769 L -0.0567,-0.5769 L -0.0600,-0.5769 L -0.0633,-0.5769 L -0.0667,-0.5769 L -0.0700,-0.5769 L -0.0733,-0.5769 L -0.0767,-0.5769 L -0.0800,-0.5769 L -0.0833,-0.5769 L -0.0867,-0.5769 L -0.0900,-0.5769 L -0.0933,-0.5769 L -0.0967,-0.5769 L -0.1000,-0.5769 L -0.1033,-0.5769 L -0.1067,-0.5769 L -0.1100,-0.5769 L -0.1133,-0.5769 L -0.1167,-0.5769 L -0.1200,-0.5769 L -0.1233,-0.5769 L -0.1267,-0.5769 L -0.1300,-0.5769 L -0.1333,-0.5769 L -0.1367,-0.5769 L -0.1400,-0.5769 L -0.1433,-0.5769 L -0.1467,-0.5769 L -0.1500,-0.5769 L -0.1533,-0.5769 L -0.1567,-0.5769 L -0.1600,-0.5769 L -0.1633,-0.5769 L -0.1667,-0.5769 L -0.1700,-0.5769 L -0.1733,-0.5769 L -0.1767,-0.5769 L -0.1800,-0.5769 L -0.1808,-0.5767 L -0.1833,-0.5743 L -0.1837,-0.5733 L -0.1850,-0.5700 L -0.1862,-0.5667 L -0.1867,-0.5654 L -0.1875,-0.5633 L -0.1887,-0.5600 L -0.1900,-0.5567 L -0.1912,-0.5533 L -0.1925,-0.5500 L -0.1933,-0.5477 L -0.1937,-0.5467 L -0.1950,-0.5433 L -0.1962,-0.5400 L -0.1967,-0.5388 L -0.1975,-0.5367 L -0.1987,-0.5333 L -0.2000,-0.5300 L -0.2012,-0.5267 L -0.2025,-0.5233 L -0.2033,-0.5210 L -0.2037,-0.5200 L -0.2050,-0.5167 L -0.2062,-0.5133 L -0.2067,-0.5121 L -0.2075,-0.5100 L -0.2087,-0.5067 L -0.2100,-0.5033 L -0.2112,-0.5000 L -0.2125,-0.4967 L -0.2133,-0.4943 L -0.2137,-0.4933 L -0.2150,-0.4900 L -0.2162,-0.4867 L -0.2167,-0.4854 L -0.2175,-0.4833 L -0.2187,-0.4800 L -0.2200,-0.4767 L -0.2212,-0.4733 L -0.2225,-0.4700 L -0.2233,-0.4677 L -0.2237,-0.4667 L -0.2250,-0.4633 L -0.2262,-0.4600 L -0.2267,-0.4588 L -0.2275,-0.4567 L -0.2287,-0.4533 L -0.2300,-0.4500 L -0.2312,-0.4467 L -0.2325,-0.4433 L -0.2333,-0.4410 L -0.2337,-0.4400 L -0.2350,-0.4367 L -0.2362,-0.4333 L -0.2367,-0.4321 L -0.2375,-0.4300 L -0.2387,-0.4267 L -0.2400,-0.4233 L -0.2412,-0.4200 L -0.2425,-0.4167 L -0.2433,-0.4143 L -0.2437,-0.4133 L -0.2450,-0.4100 L -0.2462,-0.4067 L -0.2467,-0.4054 L -0.2475,-0.4033 L -0.2487,-0.4000 L -0.2500,-0.3967 L -0.2512,-0.3933 L -0.2525,-0.3900 L -0.2533,-0.3877 L -0.2537,-0.3867 L -0.2550,-0.3833 L -0.2562,-0.3800 L -0.2567,-0.3788 L -0.2575,-0.3767 L -0.2587,-0.3733 L -0.2600,-0.3700 L -0.2612,-0.3667 L -0.2625,-0.3633 L -0.2633,-0.3610 L -0.2637,-0.3600 L -0.2650,-0.3567 L -0.2662,-0.3533 L -0.2667,-0.3521 L -0.2675,-0.3500 L -0.2687,-0.3467 L -0.2700,-0.3433 L -0.2712,-0.3400 L -0.2725,-0.3367 L -0.2733,-0.3343 L -0.2737,-0.3333 L -0.2750,-0.3300 L -0.2762,-0.3267 L -0.2767,-0.3254 L -0.2775,-0.3233 L -0.2787,-0.3200 L -0.2800,-0.3167 L -0.2812,-0.3133 L -0.2825,-0.3100 L -0.2833,-0.3077 L -0.2837,-0.3067 L -0.2850,-0.3033 L -0.2862,-0.3000 L -0.2867,-0.2988 L -0.2875,-0.2967 L -0.2887,-0.2933 L -0.2900,-0.2900 L -0.2912,-0.2867 L -0.2925,-0.2833 L -0.2933,-0.2810 L -0.2937,-0.2800 L -0.2950,-0.2767 L -0.2962,-0.2733 L -0.2967,-0.2721 L -0.2975,-0.2700 L -0.2988,-0.2667 L -0.3000,-0.2635 L -0.3001,-0.2633 L -0.3014,-0.2600 L -0.3027,-0.2567 L -0.3033,-0.2551 L -0.3040,-0.2533 L -0.3054,-0.2500 L -0.3067,-0.2469 L -0.3068,-0.2467 L -0.3082,-0.2433 L -0.3096,-0.2400 L -0.3100,-0.2390 L -0.3110,-0.2367 L -0.3124,-0.2333 L -0.3133,-0.2312 L -0.3138,-0.2300 L -0.3153,-0.2267 L -0.3167,-0.2235 L -0.3167,-0.2233 L -0.3182,-0.2200 L -0.3197,-0.2167 L -0.3212,-0.2133 L -0.3227,-0.2100 L -0.3233,-0.2085 L -0.3241,-0.2067 L -0.3257,-0.2033 L -0.3267,-0.2011 L -0.3272,-0.2000 L -0.3287,-0.1967 L -0.3300,-0.1938 L -0.3302,-0.1933 L -0.3317,-0.1900 L -0.3332,-0.1867 L -0.3348,-0.1833 L -0.3363,-0.1800 L -0.3378,-0.1767 L -0.3393,-0.1733 L -0.3400,-0.1719 L -0.3409,-0.1700 L -0.3424,-0.1667 L -0.3433,-0.1646 L -0.3439,-0.1633 L -0.3454,-0.1600 L -0.3467,-0.1573 L -0.3470,-0.1567 L -0.3485,-0.1533 L -0.3500,-0.1500 L -0.3515,-0.1467 L -0.3530,-0.1433 L -0.3544,-0.1400 L -0.3557,-0.1367 L -0.3567,-0.1343 L -0.3570,-0.1333 L -0.3583,-0.1300 L -0.3595,-0.1267 L -0.3600,-0.1254 L -0.3607,-0.1233 L -0.3618,-0.1200 L -0.3629,-0.1167 L -0.3633,-0.1154 L -0.3640,-0.1133 L -0.3650,-0.1100 L -0.3659,-0.1067 L -0.3667,-0.1040 L -0.3668,-0.1033 L -0.3677,-0.1000 L -0.3686,-0.0967 L -0.3694,-0.0933 L -0.3700,-0.0905 L -0.3701,-0.0900 L -0.3708,-0.0867 L -0.3715,-0.0833 L -0.3722,-0.0800 L -0.3728,-0.0767 L -0.3733,-0.0735 L -0.3734,-0.0733 L -0.3739,-0.0700 L -0.3744,-0.0667 L -0.3749,-0.0633 L -0.3753,-0.0600 L -0.3757,-0.0567 L -0.3761,-0.0533 L -0.3764,-0.0500 L -0.3767,-0.0469 L -0.3767,-0.0467 L -0.3770,-0.0433 L -0.3772,-0.0400 L -0.3774,-0.0367 L -0.3776,-0.0333 L -0.3777,-0.0300 L -0.3778,-0.0267 L -0.3779,-0.0233 L -0.3779,-0.0200 L -0.3779,-0.0167 L -0.3779,-0.0133 L -0.3779,-0.0100 L -0.3778,-0.0067 L -0.3777,-0.0033 L -0.3776,0.0000 L -0.3774,0.0033 L -0.3772,0.0067 L -0.3770,0.0100 L -0.3767,0.0133 L -0.3767,0.0140 L -0.3764,0.0167 L -0.3761,0.0200 L -0.3758,0.0233 L -0.3754,0.0267 L -0.3750,0.0300 L -0.3746,0.0333 L -0.3742,0.0367 L -0.3737,0.0400 L -0.3733,0.0422 L -0.3732,0.0433 L -0.3726,0.0467 L -0.3721,0.0500 L -0.3715,0.0533 L -0.3708,0.0567 L -0.3702,0.0600 L -0.3700,0.0609 L -0.3695,0.0633 L -0.3688,0.0667 L -0.3682,0.0700 L -0.3676,0.0733 L -0.3672,0.0767 L -0.3668,0.0800 L -0.3667,0.0829 L -0.3666,0.0833 L -0.3666,0.0867 L -0.3668,0.0900 L -0.3674,0.0933 L -0.3683,0.0967 L -0.3697,0.1000 L -0.3721,0.1033 L -0.3733,0.1045 L -0.3760,0.1067 L -0.3800,0.1090 L -0.3820,0.1100 L -0.3833,0.1106 L -0.3867,0.1120 L -0.3899,0.1133 L -0.3933,0.1124 L -0.3948,0.1100 L -0.3967,0.1079 L -0.3978,0.1067 L -0.4000,0.1047 L -0.4017,0.1033 L -0.4033,0.1022 L -0.4067,0.1003 L -0.4100,0.0988 L -0.4133,0.0976 L -0.4167,0.0968 L -0.4200,0.0963 L -0.4233,0.0962 L -0.4267,0.0964 L -0.4285,0.0967 L -0.4300,0.0969 L -0.4333,0.0978 L -0.4367,0.0992 L -0.4382,0.1000 L -0.4400,0.1010 L -0.4433,0.1033 L -0.4467,0.1065 L -0.4468,0.1067 L -0.4498,0.1100 L -0.4527,0.1133 L -0.4556,0.1167 L -0.4567,0.1179 L -0.4586,0.1200 L -0.4600,0.1216 L -0.4615,0.1233 L -0.4633,0.1254 L -0.4644,0.1267 L -0.4667,0.1292 L -0.4674,0.1300 L -0.4700,0.1330 L -0.4703,0.1333 L -0.4732,0.1367 L -0.4762,0.1400 L -0.4791,0.1433 L -0.4800,0.1444 L -0.4820,0.1467 L -0.4833,0.1482 L -0.4850,0.1500 L -0.4867,0.1519 L -0.4879,0.1533 L -0.4900,0.1557 L -0.4908,0.1567 L -0.4933,0.1595 L -0.4938,0.1600 L -0.4967,0.1633 L -0.4967,0.1633 L -0.4996,0.1667 L -0.5026,0.1700 L -0.5033,0.1709 L -0.5055,0.1733 L -0.5067,0.1747 L -0.5084,0.1767 L -0.5100,0.1785 L -0.5114,0.1800 L -0.5133,0.1823 L -0.5143,0.1833 L -0.5167,0.1860 L -0.5172,0.1867 L -0.5200,0.1898 L -0.5202,0.1900 L -0.5231,0.1933 L -0.5260,0.1967 L -0.5290,0.2000 L -0.5300,0.2012 L -0.5319,0.2033 L -0.5333,0.2050 L -0.5348,0.2067 L -0.5367,0.2088 L -0.5378,0.2100 L -0.5400,0.2126 L -0.5407,0.2133 L -0.5433,0.2163 L -0.5436,0.2167 L -0.5466,0.2200 L -0.5495,0.2233 L -0.5524,0.2267 L -0.5533,0.2277 L -0.5554,0.2300 L -0.5567,0.2315 L -0.5583,0.2333 L -0.5600,0.2353 L -0.5612,0.2367 L -0.5633,0.2391 L -0.5642,0.2400 L -0.5667,0.2429 L -0.5671,0.2433 L -0.5700,0.2466 L -0.5700,0.2467 L -0.5730,0.2500 L -0.5759,0.2533 L -0.5767,0.2542 L -0.5788,0.2567 L -0.5800,0.2580 L -0.5818,0.2600 L -0.5833,0.2618 L -0.5847,0.2633 L -0.5867,0.2656 L -0.5876,0.2667 L -0.5900,0.2694 L -0.5906,0.2700 L -0.5933,0.2732 L -0.5935,0.2733 L -0.5964,0.2767 L -0.5994,0.2800 L -0.6023,0.2833 L -0.6033,0.2845 L -0.6052,0.2867 L -0.6067,0.2883 L -0.6082,0.2900 L -0.6100,0.2921 L -0.6111,0.2933 L -0.6133,0.2959 L -0.6140,0.2967 L -0.6167,0.2997 L -0.6170,0.3000 L -0.6199,0.3033 L -0.6228,0.3067 L -0.6258,0.3100 L -0.6267,0.3110 L -0.6287,0.3133 L -0.6300,0.3148 L -0.6316,0.3167 L -0.6333,0.3186 L -0.6346,0.3200 L -0.6367,0.3224 L -0.6375,0.3233 L -0.6400,0.3262 L -0.6404,0.3267 L -0.6433,0.3300 L -0.6434,0.3300 L -0.6463,0.3333 L -0.6492,0.3367 L -0.6500,0.3376 L -0.6522,0.3400 L -0.6533,0.3413 L -0.6551,0.3433 L -0.6567,0.3451 L -0.6580,0.3467 L -0.6600,0.3489 L -0.6610,0.3500 L -0.6633,0.3527 L -0.6639,0.3533 L -0.6667,0.3565 L -0.6668,0.3567 L -0.6698,0.3600 L -0.6727,0.3633 L -0.6756,0.3667 L -0.6767,0.3679 L -0.6786,0.3700 L -0.6800,0.3716 L -0.6815,0.3733 L -0.6833,0.3754 L -0.6844,0.3767 L -0.6867,0.3792 L -0.6874,0.3800 L -0.6900,0.3830 L -0.6903,0.3833 L -0.6932,0.3867 L -0.6962,0.3900 L -0.6991,0.3933 L -0.7000,0.3944 L -0.7020,0.3967 L -0.7033,0.3982 L -0.7050,0.4000 L -0.7067,0.4019 L -0.7079,0.4033 L -0.7100,0.4057 L -0.7108,0.4067 L -0.7133,0.4095 L -0.7138,0.4100 L -0.7167,0.4133 L -0.7167,0.4133 L -0.7196,0.4167 L -0.7226,0.4200 L -0.7233,0.4209 L -0.7255,0.4233 L -0.7267,0.4247 L -0.7284,0.4267 L -0.7300,0.4285 L -0.7311,0.4300 L -0.7332,0.4333 L -0.7348,0.4367 L -0.7360,0.4400 L -0.7367,0.4431 L -0.7367,0.4433 L -0.7371,0.4467 L -0.7372,0.4500 L -0.7368,0.4533 L -0.7367,0.4542 L -0.7362,0.4567 L -0.7351,0.4600 L -0.7336,0.4633 L -0.7333,0.4639 L -0.7317,0.4667 L -0.7300,0.4689 L -0.7291,0.4700 L -0.7267,0.4724 L -0.7256,0.4733 L -0.7233,0.4751 L -0.7208,0.4767 L -0.7200,0.4771 L -0.7167,0.4786 L -0.7133,0.4797 L -0.7119,0.4800 L -0.7100,0.4804 L -0.7067,0.4807 L -0.7033,0.4807 L -0.7000,0.4804 L -0.6983,0.4800 L -0.6967,0.4796 L -0.6933,0.4785 L -0.6900,0.4770 L -0.6867,0.4749 L -0.6846,0.4733 L -0.6833,0.4722 L -0.6812,0.4700 L -0.6800,0.4687 L -0.6782,0.4667 L -0.6767,0.4649 L -0.6753,0.4633 L -0.6733,0.4611 L -0.6724,0.4600 L -0.6700,0.4573 L -0.6667,0.4535 L -0.6636,0.4500 L -0.6633,0.4497 L -0.6606,0.4467 L -0.6600,0.4460 L -0.6577,0.4433 L -0.6567,0.4422 L -0.6548,0.4400 L -0.6533,0.4384 L -0.6518,0.4367 L -0.6500,0.4346 L -0.6489,0.4333 L -0.6467,0.4308 L -0.6460,0.4300 L -0.6433,0.4270 L -0.6401,0.4233 L -0.6400,0.4232 L -0.6372,0.4200 L -0.6367,0.4194 L -0.6342,0.4167 L -0.6333,0.4156 L -0.6313,0.4133 L -0.6300,0.4119 L -0.6284,0.4100 L -0.6267,0.4081 L -0.6254,0.4067 L -0.6233,0.4043 L -0.6225,0.4033 L -0.6200,0.4005 L -0.6167,0.3967 L -0.6137,0.3933 L -0.6133,0.3929 L -0.6108,0.3900 L -0.6100,0.3891 L -0.6078,0.3867 L -0.6067,0.3853 L -0.6049,0.3833 L -0.6033,0.3816 L -0.6020,0.3800 L -0.6000,0.3778 L -0.5990,0.3767 L -0.5967,0.3740 L -0.5933,0.3702 L -0.5902,0.3667 L -0.5900,0.3664 L -0.5873,0.3633 L -0.5867,0.3626 L -0.5844,0.3600 L -0.5833,0.3588 L -0.5814,0.3567 L -0.5800,0.3550 L -0.5785,0.3533 L -0.5767,0.3513 L -0.5756,0.3500 L -0.5733,0.3475 L -0.5726,0.3467 L -0.5700,0.3437 L -0.5668,0.3400 L -0.5667,0.3399 L -0.5638,0.3367 L -0.5633,0.3361 L -0.5609,0.3333 L -0.5600,0.3323 L -0.5580,0.3300 L -0.5567,0.3285 L -0.5550,0.3267 L -0.5533,0.3247 L -0.5521,0.3233 L -0.5500,0.3210 L -0.5492,0.3200 L -0.5467,0.3172 L -0.5433,0.3134 L -0.5404,0.3100 L -0.5400,0.3096 L -0.5374,0.3067 L -0.5367,0.3058 L -0.5345,0.3033 L -0.5333,0.3020 L -0.5316,0.3000 L -0.5300,0.2982 L -0.5286,0.2967 L -0.5267,0.2944 L -0.5257,0.2933 L -0.5233,0.2906 L -0.5200,0.2869 L -0.5169,0.2833 L -0.5167,0.2831 L -0.5140,0.2800 L -0.5133,0.2793 L -0.5110,0.2767 L -0.5100,0.2755 L -0.5081,0.2733 L -0.5067,0.2717 L -0.5052,0.2700 L -0.5033,0.2679 L -0.5022,0.2667 L -0.5000,0.2641 L -0.4993,0.2633 L -0.4967,0.2603 L -0.4934,0.2567 L -0.4933,0.2566 L -0.4905,0.2533 L -0.4900,0.2528 L -0.4876,0.2500 L -0.4867,0.2490 L -0.4846,0.2467 L -0.4833,0.2452 L -0.4817,0.2433 L -0.4800,0.2414 L -0.4788,0.2400 L -0.4767,0.2376 L -0.4758,0.2367 L -0.4733,0.2338 L -0.4700,0.2300 L -0.4670,0.2267 L -0.4667,0.2263 L -0.4641,0.2233 L -0.4633,0.2225 L -0.4612,0.2200 L -0.4600,0.2187 L -0.4582,0.2167 L -0.4567,0.2149 L -0.4553,0.2133 L -0.4533,0.2111 L -0.4523,0.2100 L -0.4500,0.2073 L -0.4481,0.2100 L -0.4494,0.2133 L -0.4500,0.2147 L -0.4508,0.2167 L -0.4521,0.2200 L -0.4533,0.2232 L -0.4534,0.2233 L -0.4547,0.2267 L -0.4560,0.2300 L -0.4567,0.2316 L -0.4573,0.2333 L -0.4587,0.2367 L -0.4600,0.2400 L -0.4613,0.2433 L -0.4626,0.2467 L -0.4633,0.2485 L -0.4639,0.2500 L -0.4652,0.2533 L -0.4666,0.2567 L -0.4679,0.2600 L -0.4692,0.2633 L -0.4700,0.2654 L -0.4705,0.2667 L -0.4718,0.2700 L -0.4731,0.2733 L -0.4744,0.2767 L -0.4758,0.2800 L -0.4767,0.2823 L -0.4771,0.2833 L -0.4784,0.2867 L -0.4797,0.2900 L -0.4810,0.2933 L -0.4823,0.2967 L -0.4833,0.2992 L -0.4837,0.3000 L -0.4850,0.3033 L -0.4863,0.3067 L -0.4867,0.3076 L -0.4876,0.3100 L -0.4889,0.3133 L -0.4900,0.3161 L -0.4902,0.3167 L -0.4916,0.3200 L -0.4929,0.3233 L -0.4933,0.3245 L -0.4942,0.3267 L -0.4955,0.3300 L -0.4967,0.3330 L -0.4968,0.3333 L -0.4981,0.3367 L -0.4994,0.3400 L -0.5000,0.3414 L -0.5008,0.3433 L -0.5021,0.3467 L -0.5033,0.3498 L -0.5034,0.3500 L -0.5047,0.3533 L -0.5060,0.3567 L -0.5067,0.3583 L -0.5073,0.3600 L -0.5087,0.3633 L -0.5100,0.3667 L -0.5113,0.3700 L -0.5126,0.3733 L -0.5133,0.3752 L -0.5139,0.3767 L -0.5152,0.3800 L -0.5166,0.3833 L -0.5179,0.3867 L -0.5192,0.3900 L -0.5200,0.3921 L -0.5205,0.3933 L -0.5218,0.3967 L -0.5231,0.4000 L -0.5244,0.4033 L -0.5258,0.4067 L -0.5267,0.4090 L -0.5271,0.4100 L -0.5284,0.4133 L -0.5297,0.4167 L -0.5310,0.4200 L -0.5323,0.4233 L -0.5333,0.4258 L -0.5337,0.4267 L -0.5350,0.4300 L -0.5363,0.4333 L -0.5367,0.4343 L -0.5376,0.4367 L -0.5389,0.4400 L -0.5400,0.4427 L -0.5402,0.4433 L -0.5416,0.4467 L -0.5429,0.4500 L -0.5433,0.4512 L -0.5442,0.4533 L -0.5455,0.4567 L -0.5467,0.4596 L -0.5468,0.4600 L -0.5481,0.4633 L -0.5494,0.4667 L -0.5500,0.4681 L -0.5508,0.4700 L -0.5521,0.4733 L -0.5533,0.4765 L -0.5534,0.4767 L -0.5547,0.4800 L -0.5560,0.4833 L -0.5567,0.4850 L -0.5573,0.4867 L -0.5587,0.4900 L -0.5600,0.4933 L -0.5613,0.4967 L -0.5626,0.5000 L -0.5633,0.5018 L -0.5639,0.5033 L -0.5652,0.5067 L -0.5666,0.5100 L -0.5679,0.5133 L -0.5692,0.5167 L -0.5700,0.5187 L -0.5705,0.5200 L -0.5718,0.5233 L -0.5731,0.5267 L -0.5744,0.5300 L -0.5758,0.5333 L -0.5767,0.5356 L -0.5771,0.5367 L -0.5784,0.5400 L -0.5797,0.5433 L -0.5810,0.5467 L -0.5823,0.5500 L -0.5833,0.5525 L -0.5837,0.5533 L -0.5850,0.5567 L -0.5863,0.5600 L -0.5867,0.5610 L -0.5876,0.5633 L -0.5889,0.5667 L -0.5900,0.5694 L -0.5902,0.5700 L -0.5916,0.5733 L -0.5929,0.5767 L -0.5933,0.5778 L -0.5942,0.5800 L -0.5955,0.5833 L -0.5967,0.5863 L -0.5968,0.5867 L -0.5981,0.5900 L -0.5994,0.5933 L -0.6000,0.5947 L -0.6008,0.5967 L -0.6021,0.6000 L -0.6033,0.6032 L -0.6034,0.6033 L -0.6047,0.6067 L -0.6060,0.6100 L -0.6067,0.6116 L -0.6073,0.6133 L -0.6087,0.6167 L -0.6100,0.6200 L -0.6113,0.6233 L -0.6126,0.6267 L -0.6133,0.6287 L -0.6138,0.6300 L -0.6146,0.6333 L -0.6151,0.6367 L -0.6154,0.6400 L -0.6153,0.6433 L -0.6150,0.6467 L -0.6143,0.6500 L -0.6134,0.6533 L -0.6133,0.6534 L -0.6121,0.6567 L -0.6104,0.6600 L -0.6100,0.6606 L -0.6082,0.6633 L -0.6067,0.6654 L -0.6056,0.6667 L -0.6033,0.6690 L -0.6022,0.6700 L -0.6000,0.6718 L -0.5978,0.6733 L -0.5967,0.6740 L -0.5933,0.6758 L -0.5913,0.6767 L -0.5900,0.6772 L -0.5867,0.6782 L -0.5833,0.6789 L -0.5800,0.6794 L -0.5767,0.6795 L -0.5733,0.6793 L -0.5700,0.6789 L -0.5667,0.6781 L -0.5633,0.6770 L -0.5600,0.6756 L -0.5567,0.6737 L -0.5533,0.6714 L -0.5517,0.6700 L -0.5500,0.6685 L -0.5483,0.6667 L -0.5467,0.6647 L -0.5456,0.6633 L -0.5435,0.6600 L -0.5433,0.6597 L -0.5418,0.6567 L -0.5404,0.6533 L -0.5400,0.6522 L -0.5391,0.6500 L -0.5378,0.6467 L -0.5367,0.6438 L -0.5352,0.6400 L -0.5339,0.6367 L -0.5333,0.6354 L -0.5325,0.6333 L -0.5312,0.6300 L -0.5300,0.6269 L -0.5286,0.6233 L -0.5273,0.6200 L -0.5267,0.6185 L -0.5260,0.6167 L -0.5246,0.6133 L -0.5233,0.6100 L -0.5220,0.6067 L -0.5207,0.6033 L -0.5200,0.6016 L -0.5194,0.6000 L -0.5181,0.5967 L -0.5167,0.5933 L -0.5167,0.5931 L -0.5154,0.5900 L -0.5141,0.5867 L -0.5133,0.5847 L -0.5128,0.5833 L -0.5115,0.5800 L -0.5102,0.5767 L -0.5100,0.5762 L -0.5089,0.5733 L -0.5075,0.5700 L -0.5067,0.5678 L -0.5062,0.5667 L -0.5049,0.5633 L -0.5036,0.5600 L -0.5033,0.5594 L -0.5023,0.5567 L -0.5010,0.5533 L -0.5000,0.5509 L -0.4983,0.5467 L -0.4970,0.5433 L -0.4967,0.5425 L -0.4957,0.5400 L -0.4944,0.5367 L -0.4933,0.5340 L -0.4917,0.5300 L -0.4904,0.5267 L -0.4900,0.5256 L -0.4891,0.5233 L -0.4878,0.5200 L -0.4867,0.5171 L -0.4852,0.5133 L -0.4839,0.5100 L -0.4833,0.5087 L -0.4825,0.5067 L -0.4812,0.5033 L -0.4800,0.5002 L -0.4786,0.4967 L -0.4773,0.4933 L -0.4767,0.4918 L -0.4760,0.4900 L -0.4746,0.4867 L -0.4733,0.4834 L -0.4720,0.4800 L -0.4707,0.4767 L -0.4700,0.4749 L -0.4694,0.4733 L -0.4681,0.4700 L -0.4667,0.4667 L -0.4667,0.4665 L -0.4654,0.4633 L -0.4641,0.4600 L -0.4633,0.4580 L -0.4628,0.4567 L -0.4615,0.4533 L -0.4602,0.4500 L -0.4600,0.4496 L -0.4589,0.4467 L -0.4575,0.4433 L -0.4567,0.4411 L -0.4562,0.4400 L -0.4549,0.4367 L -0.4536,0.4333 L -0.4533,0.4327 L -0.4523,0.4300 L -0.4510,0.4267 L -0.4500,0.4242 L -0.4483,0.4200 L -0.4470,0.4167 L -0.4467,0.4158 L -0.4457,0.4133 L -0.4444,0.4100 L -0.4433,0.4074 L -0.4417,0.4033 L -0.4404,0.4000 L -0.4400,0.3989 L -0.4391,0.3967 L -0.4378,0.3933 L -0.4367,0.3905 L -0.4352,0.3867 L -0.4339,0.3833 L -0.4333,0.3820 L -0.4325,0.3800 L -0.4312,0.3767 L -0.4300,0.3736 L -0.4286,0.3700 L -0.4273,0.3667 L -0.4267,0.3651 L -0.4260,0.3633 L -0.4246,0.3600 L -0.4233,0.3567 L -0.4220,0.3533 L -0.4207,0.3500 L -0.4200,0.3482 L -0.4194,0.3467 L -0.4181,0.3433 L -0.4167,0.3400 L -0.4167,0.3398 L -0.4154,0.3367 L -0.4141,0.3333 L -0.4133,0.3314 L -0.4128,0.3300 L -0.4115,0.3267 L -0.4102,0.3233 L -0.4100,0.3229 L -0.4089,0.3200 L -0.4075,0.3167 L -0.4067,0.3145 L -0.4062,0.3133 L -0.4049,0.3100 L -0.4036,0.3067 L -0.4033,0.3060 L -0.4023,0.3033 L -0.4010,0.3000 L -0.4000,0.2976 L -0.3983,0.2933 L -0.3970,0.2900 L -0.3967,0.2891 L -0.3957,0.2867 L -0.3944,0.2833 L -0.3933,0.2807 L -0.3917,0.2767 L -0.3904,0.2733 L -0.3900,0.2722 L -0.3891,0.2700 L -0.3878,0.2667 L -0.3867,0.2638 L -0.3852,0.2600 L -0.3839,0.2567 L -0.3833,0.2554 L -0.3825,0.2533 L -0.3812,0.2500 L -0.3800,0.2469 L -0.3786,0.2433 L -0.3773,0.2400 L -0.3767,0.2385 L -0.3760,0.2367 L -0.3746,0.2333 L -0.3733,0.2300 L -0.3709,0.2333 L -0.3709,0.2367 L -0.3712,0.2400 L -0.3716,0.2433 L -0.3720,0.2467 L -0.3724,0.2500 L -0.3728,0.2533 L -0.3732,0.2567 L -0.3733,0.2581 L -0.3736,0.2600 L -0.3739,0.2633 L -0.3743,0.2667 L -0.3747,0.2700 L -0.3751,0.2733 L -0.3755,0.2767 L -0.3759,0.2800 L -0.3763,0.2833 L -0.3767,0.2867 L -0.3770,0.2900 L -0.3774,0.2933 L -0.3778,0.2967 L -0.3782,0.3000 L -0.3786,0.3033 L -0.3790,0.3067 L -0.3794,0.3100 L -0.3798,0.3133 L -0.3800,0.3154 L -0.3801,0.3167 L -0.3805,0.3200 L -0.3809,0.3233 L -0.3813,0.3267 L -0.3817,0.3300 L -0.3821,0.3333 L -0.3825,0.3367 L -0.3829,0.3400 L -0.3832,0.3433 L -0.3836,0.3467 L -0.3840,0.3500 L -0.3844,0.3533 L -0.3848,0.3567 L -0.3852,0.3600 L -0.3856,0.3633 L -0.3860,0.3667 L -0.3863,0.3700 L -0.3867,0.3727 L -0.3867,0.3733 L -0.3871,0.3767 L -0.3875,0.3800 L -0.3879,0.3833 L -0.3883,0.3867 L -0.3887,0.3900 L -0.3891,0.3933 L -0.3894,0.3967 L -0.3898,0.4000 L -0.3900,0.4014 L -0.3902,0.4033 L -0.3906,0.4067 L -0.3910,0.4100 L -0.3914,0.4133 L -0.3918,0.4167 L -0.3922,0.4200 L -0.3926,0.4233 L -0.3929,0.4267 L -0.3933,0.4300 L -0.3937,0.4333 L -0.3941,0.4367 L -0.3945,0.4400 L -0.3949,0.4433 L -0.3953,0.4467 L -0.3957,0.4500 L -0.3960,0.4533 L -0.3964,0.4567 L -0.3967,0.4587 L -0.3968,0.4600 L -0.3972,0.4633 L -0.3976,0.4667 L -0.3980,0.4700 L -0.3984,0.4733 L -0.3988,0.4767 L -0.3991,0.4800 L -0.3995,0.4833 L -0.3999,0.4867 L -0.4003,0.4900 L -0.4007,0.4933 L -0.4011,0.4967 L -0.4015,0.5000 L -0.4019,0.5033 L -0.4022,0.5067 L -0.4026,0.5100 L -0.4030,0.5133 L -0.4033,0.5161 L -0.4034,0.5167 L -0.4038,0.5200 L -0.4042,0.5233 L -0.4046,0.5267 L -0.4050,0.5300 L -0.4053,0.5333 L -0.4057,0.5367 L -0.4061,0.5400 L -0.4065,0.5433 L -0.4067,0.5447 L -0.4069,0.5467 L -0.4073,0.5500 L -0.4077,0.5533 L -0.4081,0.5567 L -0.4084,0.5600 L -0.4088,0.5633 L -0.4092,0.5667 L -0.4096,0.5700 L -0.4100,0.5733 L -0.4104,0.5767 L -0.4108,0.5800 L -0.4112,0.5833 L -0.4115,0.5867 L -0.4119,0.5900 L -0.4123,0.5933 L -0.4127,0.5967 L -0.4131,0.6000 L -0.4133,0.6021 L -0.4135,0.6033 L -0.4139,0.6067 L -0.4143,0.6100 L -0.4146,0.6133 L -0.4150,0.6167 L -0.4154,0.6200 L -0.4158,0.6233 L -0.4162,0.6267 L -0.4166,0.6300 L -0.4170,0.6333 L -0.4174,0.6367 L -0.4177,0.6400 L -0.4181,0.6433 L -0.4185,0.6467 L -0.4189,0.6500 L -0.4193,0.6533 L -0.4197,0.6567 L -0.4200,0.6594 L -0.4201,0.6600 L -0.4205,0.6633 L -0.4208,0.6667 L -0.4212,0.6700 L -0.4216,0.6733 L -0.4220,0.6767 L -0.4224,0.6800 L -0.4228,0.6833 L -0.4232,0.6867 L -0.4233,0.6881 L -0.4236,0.6900 L -0.4239,0.6933 L -0.4243,0.6967 L -0.4247,0.7000 L -0.4251,0.7033 L -0.4255,0.7067 L -0.4259,0.7100 L -0.4263,0.7133 L -0.4267,0.7167 L -0.4270,0.7200 L -0.4274,0.7233 L -0.4278,0.7267 L -0.4282,0.7300 L -0.4286,0.7333 L -0.4290,0.7367 L -0.4293,0.7400 L -0.4295,0.7433 L -0.4294,0.7467 L -0.4290,0.7500 L -0.4284,0.7533 L -0.4275,0.7567 L -0.4267,0.7592 L -0.4264,0.7600 L -0.4249,0.7633 L -0.4233,0.7662 L -0.4231,0.7667 L -0.4209,0.7700 L -0.4200,0.7712 L -0.4182,0.7733 L -0.4167,0.7750 L -0.4149,0.7767 L -0.4133,0.7781 L -0.4108,0.7800 L -0.4100,0.7806 L -0.4067,0.7827 L -0.4054,0.7833 L -0.4033,0.7844 L -0.4000,0.7857 L -0.3971,0.7867 L -0.3967,0.7868 L -0.3933,0.7876 L -0.3900,0.7881 L -0.3867,0.7884 L -0.3833,0.7884 L -0.3800,0.7882 L -0.3767,0.7878 L -0.3733,0.7870 Z M -0.3467,0.7675 L -0.3461,0.7667 Z M -0.1533,0.7273 L -0.1529,0.7267 Z M -0.1500,0.7201 L -0.1500,0.7200 Z M -0.4267,0.7167 L -0.4267,0.7167 Z M -0.1500,0.6833 L -0.1500,0.6831 Z M -0.5633,0.6770 L -0.5625,0.6767 Z M -0.5567,0.6737 L -0.5561,0.6733 Z M -0.5367,0.6438 L -0.5365,0.6433 Z M -0.1567,0.6338 L -0.1567,0.6333 Z M -0.3267,0.6337 L -0.3266,0.6333 Z M -0.4166,0.6300 L -0.4167,0.6307 Z M -0.5300,0.6269 L -0.5299,0.6267 Z M -0.6100,0.6200 L -0.6100,0.6201 Z M -0.5233,0.6100 L -0.5233,0.6100 Z M -0.0400,0.6069 L -0.0397,0.6067 Z M -0.1599,0.6100 L -0.1600,0.6091 Z M -0.0367,0.6039 L -0.0362,0.6033 Z M -0.4100,0.5733 L -0.4100,0.5734 Z M -0.1666,0.5600 L -0.1667,0.5598 Z M -0.0333,0.5503 L -0.0334,0.5500 Z M -0.5000,0.5509 L -0.4996,0.5500 Z M -0.5797,0.5433 L -0.5800,0.5441 Z M -0.0400,0.5336 L -0.0401,0.5333 Z M -0.4933,0.5340 L -0.4931,0.5333 Z M -0.5731,0.5267 L -0.5733,0.5272 Z M -0.0467,0.5170 L -0.0468,0.5167 Z M -0.4867,0.5171 L -0.4865,0.5167 Z M -0.1733,0.5105 L -0.1734,0.5100 Z M -0.5666,0.5100 L -0.5667,0.5103 Z M -0.0533,0.5003 L -0.0534,0.5000 Z M -0.4800,0.5002 L -0.4799,0.5000 Z M -0.5600,0.4933 L -0.5600,0.4934 Z M -0.3100,0.4904 L -0.3100,0.4900 Z M -0.3999,0.4867 L -0.4000,0.4874 Z M -0.0600,0.4836 L -0.0601,0.4833 Z M -0.1765,0.4867 L -0.1767,0.4858 Z M -0.4733,0.4834 L -0.4733,0.4833 Z M -0.6900,0.4770 L -0.6895,0.4767 Z M -0.0667,0.4670 L -0.0668,0.4667 Z M -0.6700,0.4573 L -0.6694,0.4567 Z M -0.6667,0.4535 L -0.6665,0.4533 Z M -0.0733,0.4503 L -0.0734,0.4500 Z M -0.0800,0.4336 L -0.0801,0.4333 Z M -0.1833,0.4367 L -0.1833,0.4365 Z M -0.7332,0.4333 L -0.7333,0.4335 Z M -0.3933,0.4300 L -0.3933,0.4301 Z M -0.6433,0.4270 L -0.6430,0.4267 Z M -0.4500,0.4242 L -0.4496,0.4233 Z M -0.0867,0.4170 L -0.0868,0.4167 Z M -0.5297,0.4167 L -0.5300,0.4174 Z M -0.7196,0.4167 L -0.7200,0.4171 Z M -0.4433,0.4074 L -0.4431,0.4067 Z M -0.0933,0.4003 L -0.0934,0.4000 Z M -0.5231,0.4000 L -0.5233,0.4005 Z M -0.6200,0.4005 L -0.6196,0.4000 Z M -0.6167,0.3967 L -0.6166,0.3967 Z M -0.4367,0.3905 L -0.4365,0.3900 Z M -0.6962,0.3900 L -0.6967,0.3906 Z M -0.1900,0.3871 L -0.1901,0.3867 Z M -0.6932,0.3867 L -0.6933,0.3868 Z M -0.5166,0.3833 L -0.5167,0.3836 Z M -0.1000,0.3800 L -0.1000,0.3798 Z M -0.4300,0.3736 L -0.4299,0.3733 Z M -0.5967,0.3740 L -0.5961,0.3733 Z M -0.5933,0.3702 L -0.5932,0.3700 Z M -0.5100,0.3667 L -0.5100,0.3667 Z M -0.1000,0.3639 L -0.0999,0.3633 Z M -0.6727,0.3633 L -0.6733,0.3641 Z M -0.6698,0.3600 L -0.6700,0.3603 Z M -0.0967,0.3570 L -0.0964,0.3567 Z M -0.4233,0.3567 L -0.4233,0.3567 Z M -0.0933,0.3537 L -0.0928,0.3533 Z M -0.2933,0.3471 L -0.2933,0.3467 Z M -0.3832,0.3433 L -0.3833,0.3441 Z M -0.5700,0.3437 L -0.5697,0.3433 Z M -0.6463,0.3333 L -0.6467,0.3338 Z M 0.0467,0.3235 L 0.0470,0.3233 Z M -0.5467,0.3172 L -0.5462,0.3167 Z M -0.5433,0.3134 L -0.5433,0.3133 Z M 0.0733,0.3104 L 0.0740,0.3100 Z M -0.6228,0.3067 L -0.6233,0.3073 Z M -0.6199,0.3033 L -0.6200,0.3035 Z M 0.0900,0.3003 L 0.0905,0.3000 Z M -0.4000,0.2976 L -0.3996,0.2967 Z M 0.1000,0.2935 L 0.1002,0.2933 Z M -0.4797,0.2900 L -0.4800,0.2907 Z M -0.5233,0.2906 L -0.5228,0.2900 Z M -0.3767,0.2867 L -0.3767,0.2867 Z M -0.5200,0.2869 L -0.5198,0.2867 Z M 0.1133,0.2833 L 0.1134,0.2833 Z M 0.1167,0.2806 L 0.1174,0.2800 Z M -0.3933,0.2807 L -0.3931,0.2800 Z M -0.5994,0.2800 L -0.6000,0.2807 Z M -0.5964,0.2767 L -0.5967,0.2769 Z M -0.4731,0.2733 L -0.4733,0.2738 Z M -0.3867,0.2638 L -0.3865,0.2633 Z M -0.4967,0.2603 L -0.4964,0.2600 Z M -0.4666,0.2567 L -0.4667,0.2570 Z M -0.5730,0.2500 L -0.5733,0.2504 Z M -0.3800,0.2469 L -0.3799,0.2467 Z M 0.1533,0.2438 L 0.1537,0.2433 Z M -0.4600,0.2400 L -0.4600,0.2401 Z M -0.4733,0.2338 L -0.4729,0.2333 Z M -0.4700,0.2300 L -0.4700,0.2300 Z M -0.3697,0.2267 L -0.3700,0.2294 L -0.3707,0.2267 L -0.3707,0.2233 L -0.3700,0.2216 L -0.3693,0.2233 L -0.3697,0.2267 Z M -0.5495,0.2233 L -0.5500,0.2239 Z M -0.5466,0.2200 L -0.5467,0.2201 Z M -0.5260,0.1967 L -0.5267,0.1974 Z M -0.5231,0.1933 L -0.5233,0.1936 Z M -0.4996,0.1667 L -0.5000,0.1671 Z M 0.2033,0.1537 L 0.2035,0.1533 Z M -0.4762,0.1400 L -0.4767,0.1406 Z M -0.4732,0.1367 L -0.4733,0.1368 Z M 0.2100,0.1306 L 0.2101,0.1300 Z M -0.3899,0.1133 L -0.3900,0.1134 L -0.3904,0.1133 Z M -0.4527,0.1133 L -0.4533,0.1141 Z M -0.4498,0.1100 L -0.4500,0.1103 Z M -0.3760,0.1067 L -0.3767,0.1071 Z M -0.4433,0.1033 L -0.4433,0.1034 Z M -0.3697,0.1000 L -0.3700,0.1004 Z M -0.4067,0.1003 L -0.4073,0.1000 Z M -0.4167,0.0968 L -0.4176,0.0967 Z M 0.2167,0.0909 L 0.2168,0.0900 Z M 0.4667,0.0868 L 0.4670,0.0867 Z M -0.3666,0.0867 L -0.3667,0.0873 Z M 0.2233,0.0671 L 0.2238,0.0667 Z M 0.5067,0.0568 L 0.5068,0.0567 Z M 0.5167,0.0503 L 0.5173,0.0500 Z M 0.5467,0.0401 L 0.5471,0.0400 Z M 0.6000,0.0235 L 0.6004,0.0233 Z M 0.6533,0.0068 L 0.6538,0.0067 Z M 0.7067,-0.0099 L 0.7071,-0.0100 Z M 0.4000,-0.0200 L 0.3997,-0.0200 Z M 0.7600,-0.0265 L 0.7604,-0.0267 Z M 0.3507,-0.0267 L 0.3500,-0.0268 Z M 0.3267,-0.0299 L 0.3262,-0.0300 Z M 0.5239,-0.0333 L 0.5233,-0.0332 Z M 0.2773,-0.0367 L 0.2767,-0.0368 Z M 0.2533,-0.0399 L 0.2529,-0.0400 Z M 0.8133,-0.0432 L 0.8138,-0.0433 Z M 0.2167,-0.0464 L 0.2161,-0.0467 Z M 0.5772,-0.0500 L 0.5767,-0.0498 Z M 0.2100,-0.0498 L 0.2097,-0.0500 Z M 0.2000,-0.0593 L 0.1995,-0.0600 Z M 0.6305,-0.0667 L 0.6300,-0.0665 Z M 0.1934,-0.0733 L 0.1933,-0.0735 Z M 0.6839,-0.0833 L 0.6833,-0.0832 Z M 0.1900,-0.0859 L 0.1898,-0.0867 Z M 0.7372,-0.1000 L 0.7367,-0.0998 Z M 0.1833,-0.1128 L 0.1832,-0.1133 Z M 0.8637,-0.1133 L 0.8633,-0.1138 Z M 0.7905,-0.1167 L 0.7900,-0.1165 Z M 0.8571,-0.1200 L 0.8567,-0.1203 Z M 0.8440,-0.1267 L 0.8433,-0.1269 Z M 0.1800,-0.1291 L 0.1798,-0.1300 Z M -0.3530,-0.1433 L -0.3533,-0.1424 Z M -0.3500,-0.1500 L -0.3500,-0.1500 Z M -0.3363,-0.1800 L -0.3367,-0.1792 Z M -0.3332,-0.1867 L -0.3333,-0.1865 Z M 0.1767,-0.1999 L 0.1767,-0.2000 Z M -0.3197,-0.2167 L -0.3200,-0.2159 Z M 0.1867,-0.2457 L 0.1870,-0.2467 Z M 0.1967,-0.2732 L 0.1967,-0.2733 Z M -0.2900,-0.2900 L -0.2900,-0.2899 Z M 0.2067,-0.2999 L 0.2067,-0.3000 Z M -0.2800,-0.3167 L -0.2800,-0.3165 Z M 0.2167,-0.3265 L 0.2167,-0.3267 Z M -0.2700,-0.3433 L -0.2700,-0.3432 Z M 0.2267,-0.3532 L 0.2267,-0.3533 Z M -0.2600,-0.3700 L -0.2600,-0.3699 Z M 0.2367,-0.3799 L 0.2367,-0.3800 Z M -0.2500,-0.3967 L -0.2500,-0.3965 Z M 0.2467,-0.4065 L 0.2467,-0.4067 Z M -0.2400,-0.4233 L -0.2400,-0.4232 Z M 0.2567,-0.4332 L 0.2567,-0.4333 Z M -0.2300,-0.4500 L -0.2300,-0.4499 Z M 0.2667,-0.4599 L 0.2667,-0.4600 Z M -0.2200,-0.4767 L -0.2200,-0.4765 Z M 0.2767,-0.4865 L 0.2767,-0.4867 Z M -0.2100,-0.5033 L -0.2100,-0.5032 Z M 0.2867,-0.5159 L 0.2869,-0.5167 Z M 0.2900,-0.5298 L 0.2901,-0.5300 Z M -0.2000,-0.5300 L -0.2000,-0.5299 Z M -0.1900,-0.5567 L -0.1900,-0.5565 Z M 0.2937,-0.5767 L 0.2933,-0.5769 Z " fill="url(#bodyGrad)" mask="url(#eyeMask)" stroke="rgb(0, 204, 255)" stroke-width="0.02" stroke-linejoin="round" stroke-linecap="round" />
</g>
</svg>